{
    "asset" : {
        "generator" : "Khronos glTF Blender I/O v3.4.50",
        "version" : "2.0"
    },
    "scene" : 0,
    "scenes" : [
        {
            "name" : "Scene",
            "nodes" : [
                0,
                1,
                2
            ]
        }
    ],
    "nodes" : [
        {
            "mesh" : 0,
            "name" : "Circle.1442"
        },
        {
            "mesh" : 1,
            "name" : "Plane.002"
        },
        {
            "mesh" : 2,
            "name" : "Plane.006"
        }
    ],
    "materials" : [
        {
            "doubleSided" : true,
            "name" : "pins",
            "pbrMetallicRoughness" : {
                "baseColorFactor" : [
                    0.6836828589439392,
                    0.6282994747161865,
                    0.25126320123672485,
                    1
                ],
                "roughnessFactor" : 0.28999999165534973
            }
        },
        {
            "doubleSided" : true,
            "name" : "Material.011",
            "pbrMetallicRoughness" : {
                "baseColorTexture" : {
                    "index" : 0
                },
                "metallicFactor" : 0,
                "roughnessFactor" : 0.5
            }
        },
        {
            "doubleSided" : true,
            "name" : "Material.012",
            "pbrMetallicRoughness" : {
                "baseColorTexture" : {
                    "index" : 1
                },
                "metallicFactor" : 0,
                "roughnessFactor" : 0.5
            }
        },
        {
            "doubleSided" : true,
            "name" : "Material.013",
            "pbrMetallicRoughness" : {
                "baseColorTexture" : {
                    "index" : 2
                },
                "metallicFactor" : 0,
                "roughnessFactor" : 0.5
            }
        },
        {
            "doubleSided" : true,
            "emissiveFactor" : [
                0.30879236494669726,
                0.30879236494669726,
                0.30879236494669726
            ],
            "name" : "Material.022",
            "pbrMetallicRoughness" : {
                "baseColorTexture" : {
                    "index" : 3
                },
                "roughnessFactor" : 0.5
            }
        }
    ],
    "meshes" : [
        {
            "name" : "Circle.000",
            "primitives" : [
                {
                    "attributes" : {
                        "POSITION" : 0,
                        "NORMAL" : 1
                    },
                    "indices" : 2,
                    "material" : 0
                }
            ]
        },
        {
            "name" : "Plane.006",
            "primitives" : [
                {
                    "attributes" : {
                        "COLOR_0" : 3,
                        "POSITION" : 4,
                        "TEXCOORD_0" : 5,
                        "TEXCOORD_1" : 6,
                        "NORMAL" : 7
                    },
                    "indices" : 8,
                    "material" : 1
                },
                {
                    "attributes" : {
                        "COLOR_0" : 9,
                        "POSITION" : 10,
                        "TEXCOORD_0" : 11,
                        "TEXCOORD_1" : 12,
                        "NORMAL" : 13
                    },
                    "indices" : 14,
                    "material" : 2
                },
                {
                    "attributes" : {
                        "COLOR_0" : 15,
                        "POSITION" : 16,
                        "TEXCOORD_0" : 17,
                        "TEXCOORD_1" : 18,
                        "NORMAL" : 19
                    },
                    "indices" : 20,
                    "material" : 3
                }
            ]
        },
        {
            "name" : "Plane.004",
            "primitives" : [
                {
                    "attributes" : {
                        "POSITION" : 21,
                        "TEXCOORD_0" : 22,
                        "NORMAL" : 23
                    },
                    "indices" : 24,
                    "material" : 4
                }
            ]
        }
    ],
    "textures" : [
        {
            "sampler" : 0,
            "source" : 0
        },
        {
            "sampler" : 0,
            "source" : 1
        },
        {
            "sampler" : 0,
            "source" : 1
        },
        {
            "sampler" : 0,
            "source" : 2
        }
    ],
    "images" : [
        {
            "mimeType" : "image/jpeg",
            "name" : "Pcb",
            "uri" : "Pcb.jpg"
        },
        {
            "mimeType" : "image/jpeg",
            "name" : "Group 1",
            "uri" : "Group%201.jpg"
        },
        {
            "mimeType" : "image/png",
            "name" : "RyzenPrintMask.jpg",
            "uri" : "RyzenPrintMask_jpg.png"
        }
    ],
    "accessors" : [
        {
            "bufferView" : 0,
            "componentType" : 5126,
            "count" : 118637,
            "max" : [
                1.0665614604949951,
                -0.33085399866104126,
                1.0617120265960693
            ],
            "min" : [
                -1.0312817096710205,
                -0.4176396131515503,
                -1.0361309051513672
            ],
            "type" : "VEC3"
        },
        {
            "bufferView" : 1,
            "componentType" : 5126,
            "count" : 118637,
            "type" : "VEC3"
        },
        {
            "bufferView" : 2,
            "componentType" : 5125,
            "count" : 671832,
            "type" : "SCALAR"
        },
        {
            "bufferView" : 3,
            "componentType" : 5123,
            "count" : 4,
            "normalized" : true,
            "type" : "VEC4"
        },
        {
            "bufferView" : 4,
            "componentType" : 5126,
            "count" : 4,
            "max" : [
                1.090869665145874,
                -0.2878410518169403,
                1.084476351737976
            ],
            "min" : [
                -1.0555953979492188,
                -0.2878483235836029,
                -1.0619887113571167
            ],
            "type" : "VEC3"
        },
        {
            "bufferView" : 5,
            "componentType" : 5126,
            "count" : 4,
            "type" : "VEC2"
        },
        {
            "bufferView" : 6,
            "componentType" : 5126,
            "count" : 4,
            "type" : "VEC2"
        },
        {
            "bufferView" : 7,
            "componentType" : 5126,
            "count" : 4,
            "type" : "VEC3"
        },
        {
            "bufferView" : 8,
            "componentType" : 5123,
            "count" : 6,
            "type" : "SCALAR"
        },
        {
            "bufferView" : 9,
            "componentType" : 5123,
            "count" : 16,
            "normalized" : true,
            "type" : "VEC4"
        },
        {
            "bufferView" : 10,
            "componentType" : 5126,
            "count" : 16,
            "max" : [
                1.090869665145874,
                -0.2878410518169403,
                1.084476351737976
            ],
            "min" : [
                -1.0555953979492188,
                -0.33168965578079224,
                -1.0619888305664062
            ],
            "type" : "VEC3"
        },
        {
            "bufferView" : 11,
            "componentType" : 5126,
            "count" : 16,
            "type" : "VEC2"
        },
        {
            "bufferView" : 12,
            "componentType" : 5126,
            "count" : 16,
            "type" : "VEC2"
        },
        {
            "bufferView" : 13,
            "componentType" : 5126,
            "count" : 16,
            "type" : "VEC3"
        },
        {
            "bufferView" : 14,
            "componentType" : 5123,
            "count" : 24,
            "type" : "SCALAR"
        },
        {
            "bufferView" : 15,
            "componentType" : 5123,
            "count" : 4,
            "normalized" : true,
            "type" : "VEC4"
        },
        {
            "bufferView" : 16,
            "componentType" : 5126,
            "count" : 4,
            "max" : [
                1.090869665145874,
                -0.33168238401412964,
                1.0844762325286865
            ],
            "min" : [
                -1.0555953979492188,
                -0.33168965578079224,
                -1.0619888305664062
            ],
            "type" : "VEC3"
        },
        {
            "bufferView" : 17,
            "componentType" : 5126,
            "count" : 4,
            "type" : "VEC2"
        },
        {
            "bufferView" : 18,
            "componentType" : 5126,
            "count" : 4,
            "type" : "VEC2"
        },
        {
            "bufferView" : 19,
            "componentType" : 5126,
            "count" : 4,
            "type" : "VEC3"
        },
        {
            "bufferView" : 20,
            "componentType" : 5123,
            "count" : 6,
            "type" : "SCALAR"
        },
        {
            "bufferView" : 21,
            "componentType" : 5126,
            "count" : 697,
            "max" : [
                0.9868686199188232,
                -0.15076600015163422,
                0.9820188879966736
            ],
            "min" : [
                -0.9515882730484009,
                -0.27484598755836487,
                -0.9564380645751953
            ],
            "type" : "VEC3"
        },
        {
            "bufferView" : 22,
            "componentType" : 5126,
            "count" : 697,
            "type" : "VEC2"
        },
        {
            "bufferView" : 23,
            "componentType" : 5126,
            "count" : 697,
            "type" : "VEC3"
        },
        {
            "bufferView" : 24,
            "componentType" : 5123,
            "count" : 3294,
            "type" : "SCALAR"
        }
    ],
    "bufferViews" : [
        {
            "buffer" : 0,
            "byteLength" : 1423644,
            "byteOffset" : 0,
            "target" : 34962
        },
        {
            "buffer" : 0,
            "byteLength" : 1423644,
            "byteOffset" : 1423644,
            "target" : 34962
        },
        {
            "buffer" : 0,
            "byteLength" : 2687328,
            "byteOffset" : 2847288,
            "target" : 34963
        },
        {
            "buffer" : 0,
            "byteLength" : 32,
            "byteOffset" : 5534616,
            "target" : 34962
        },
        {
            "buffer" : 0,
            "byteLength" : 48,
            "byteOffset" : 5534648,
            "target" : 34962
        },
        {
            "buffer" : 0,
            "byteLength" : 32,
            "byteOffset" : 5534696,
            "target" : 34962
        },
        {
            "buffer" : 0,
            "byteLength" : 32,
            "byteOffset" : 5534728,
            "target" : 34962
        },
        {
            "buffer" : 0,
            "byteLength" : 48,
            "byteOffset" : 5534760,
            "target" : 34962
        },
        {
            "buffer" : 0,
            "byteLength" : 12,
            "byteOffset" : 5534808,
            "target" : 34963
        },
        {
            "buffer" : 0,
            "byteLength" : 128,
            "byteOffset" : 5534820,
            "target" : 34962
        },
        {
            "buffer" : 0,
            "byteLength" : 192,
            "byteOffset" : 5534948,
            "target" : 34962
        },
        {
            "buffer" : 0,
            "byteLength" : 128,
            "byteOffset" : 5535140,
            "target" : 34962
        },
        {
            "buffer" : 0,
            "byteLength" : 128,
            "byteOffset" : 5535268,
            "target" : 34962
        },
        {
            "buffer" : 0,
            "byteLength" : 192,
            "byteOffset" : 5535396,
            "target" : 34962
        },
        {
            "buffer" : 0,
            "byteLength" : 48,
            "byteOffset" : 5535588,
            "target" : 34963
        },
        {
            "buffer" : 0,
            "byteLength" : 32,
            "byteOffset" : 5535636,
            "target" : 34962
        },
        {
            "buffer" : 0,
            "byteLength" : 48,
            "byteOffset" : 5535668,
            "target" : 34962
        },
        {
            "buffer" : 0,
            "byteLength" : 32,
            "byteOffset" : 5535716,
            "target" : 34962
        },
        {
            "buffer" : 0,
            "byteLength" : 32,
            "byteOffset" : 5535748,
            "target" : 34962
        },
        {
            "buffer" : 0,
            "byteLength" : 48,
            "byteOffset" : 5535780,
            "target" : 34962
        },
        {
            "buffer" : 0,
            "byteLength" : 12,
            "byteOffset" : 5535828,
            "target" : 34963
        },
        {
            "buffer" : 0,
            "byteLength" : 8364,
            "byteOffset" : 5535840,
            "target" : 34962
        },
        {
            "buffer" : 0,
            "byteLength" : 5576,
            "byteOffset" : 5544204,
            "target" : 34962
        },
        {
            "buffer" : 0,
            "byteLength" : 8364,
            "byteOffset" : 5549780,
            "target" : 34962
        },
        {
            "buffer" : 0,
            "byteLength" : 6588,
            "byteOffset" : 5558144,
            "target" : 34963
        }
    ],
    "samplers" : [
        {
            "magFilter" : 9729,
            "minFilter" : 9987
        }
    ],
    "buffers" : [
        {
            "byteLength" : 5564732,
            "uri" : "ryzen.bin"
        }
    ]
}
